<?xml version="1.0" encoding="UTF-8" standalone="no"?>
<svg
   xmlns:dc="http://purl.org/dc/elements/1.1/"
   xmlns:cc="http://creativecommons.org/ns#"
   xmlns:rdf="http://www.w3.org/1999/02/22-rdf-syntax-ns#"
   xmlns:svg="http://www.w3.org/2000/svg"
   xmlns="http://www.w3.org/2000/svg"
   xmlns:sodipodi="http://sodipodi.sourceforge.net/DTD/sodipodi-0.dtd"
   xmlns:inkscape="http://www.inkscape.org/namespaces/inkscape"
   id="0ce71913-f5a2-4138-a489-2bb5e4e41a74"
   data-name="Layer 1"
   width="219.60001"
   height="123.66"
   viewBox="0 0 219.60001 123.66"
   version="1.1"
   sodipodi:docname="aurea-blue.svg"
   inkscape:version="0.92.2 2405546, 2018-03-11">
  <metadata
     id="metadata21">
    <rdf:RDF>
      <cc:Work
         rdf:about="">
        <dc:format>image/svg+xml</dc:format>
        <dc:type
           rdf:resource="http://purl.org/dc/dcmitype/StillImage" />
        <dc:title>Artboard 1</dc:title>
      </cc:Work>
    </rdf:RDF>
  </metadata>
  <defs
     id="defs19" />
  <sodipodi:namedview
     pagecolor="#ffffff"
     bordercolor="#666666"
     borderopacity="1"
     objecttolerance="10"
     gridtolerance="10"
     guidetolerance="10"
     inkscape:pageopacity="0"
     inkscape:pageshadow="2"
     inkscape:window-width="1292"
     inkscape:window-height="659"
     id="namedview17"
     showgrid="false"
     fit-margin-top="2"
     fit-margin-right="2"
     fit-margin-bottom="2"
     fit-margin-left="2"
     inkscape:zoom="1.9666667"
     inkscape:cx="110.5"
     inkscape:cy="61.66"
     inkscape:window-x="149"
     inkscape:window-y="174"
     inkscape:window-maximized="0"
     inkscape:current-layer="0ce71913-f5a2-4138-a489-2bb5e4e41a74" />
  <title
     id="title2">Artboard 1</title>
  <polygon
     points="0,0 128.04,0 128.04,57.73 121.52,57.73 121.52,6.51 6.51,6.51 6.51,113.15 127.92,113.15 127.92,119.66 0,119.66 "
     id="polygon4"
     style="fill:#1b365d"
     transform="translate(2,2)" />
  <path
     d="M 67,105.42 63.48,96.17 H 41.49 L 38,105.42 H 28.44 L 47.23,57.59 H 57.7 l 18.79,47.83 z M 52.46,66 43.86,88.8 h 17.21 z"
     id="path6"
     inkscape:connector-curvature="0"
     style="fill:#1b365d" />
  <path
     d="m 104.59,105.42 v -4.59 a 16.58,16.58 0 0 1 -12.19,5.45 c -7.46,0 -11.18,-4 -11.18,-11 v -24.5 h 7.52 v 21.73 c 0,5.38 2.73,7.1 7,7.1 a 11.46,11.46 0 0 0 8.82,-4.52 V 70.78 h 7.53 v 34.64 z"
     id="path8"
     inkscape:connector-curvature="0"
     style="fill:#1b365d" />
  <path
     d="M 122.59,105.42 V 70.78 h 7.53 v 5 c 2.65,-3.3 6.81,-5.88 11.26,-5.88 v 7.46 a 10.67,10.67 0 0 0 -2.3,-0.22 c -3.23,0 -7.46,2.15 -9,4.67 v 23.59 z"
     id="path10"
     inkscape:connector-curvature="0"
     style="fill:#1b365d" />
  <path
     d="m 146.11,88.06 c 0,-10 7.31,-18.14 17.56,-18.14 10.4,0 17,7.89 17,18.79 v 1.86 H 154 c 0.58,5.17 4.45,9.54 11,9.54 a 14.55,14.55 0 0 0 9.89,-3.87 l 3.44,5 a 20.46,20.46 0 0 1 -14.05,5.09 C 153.78,106.28 146.11,99 146.11,88.06 Z m 17.49,-12 c -6.38,0 -9.39,5 -9.68,9.1 h 19.51 a 9.33,9.33 0 0 0 -9.83,-9.07 z"
     id="path12"
     inkscape:connector-curvature="0"
     style="fill:#1b365d" />
  <path
     d="m 210.07,105.42 v -3.8 c -2.58,3 -6.67,4.66 -11.26,4.66 -5.59,0 -12,-3.87 -12,-11.48 0,-8 6.31,-11.33 12,-11.33 4.73,0 8.68,1.51 11.26,4.45 v -5.16 c 0,-4 -3.37,-6.46 -8.1,-6.46 a 13.88,13.88 0 0 0 -10.26,4.45 l -3.16,-5.24 a 20.31,20.31 0 0 1 14.56,-5.59 c 7.75,0 14.49,3.23 14.49,12.48 v 23 z m 0,-7.89 v -5.31 c -1.79,-2.36 -5,-3.58 -8.25,-3.58 -4.23,0 -7.46,2.51 -7.46,6.24 0,3.73 3.23,6.23 7.46,6.23 3.23,0 6.46,-1.21 8.25,-3.58 z"
     id="path14"
     inkscape:connector-curvature="0"
     style="fill:#1b365d" />
</svg>
